<svg height="206pt" preserveAspectRatio="xMidYMid meet" viewBox="0 0 245 206" width="245pt" xmlns="http://www.w3.org/2000/svg"><g transform="matrix(.1 0 0 -.1 0 206)"><path d="m1095 1826c-177-43-317-178-369-355-35-120-14-288 50-397l24-41-30-88c-16-49-29-89-27-90 1-1 42 10 91 26l89 28 76-37c74-36 79-37 191-37 90 0 126 4 165 19 351 136 446 577 180 841-118 117-289 168-440 131zm13-251c38-78 40-102 8-135l-23-25 23-46c25-51 75-99 134-129 52-26 55-26 91 15 17 19 37 35 44 35s42-15 77-34c70-38 78-54 54-110-18-44-78-75-142-76-59 0-189 67-264 137-72 66-147 176-167 243-27 91 23 190 96 190 35 0 38-2 69-65z"/><path d="m1775 1565c44-129 53-233 31-346-47-235-228-425-461-484-117-30-300-13-395 35l-39 20-141-46c-77-25-140-49-140-54 0-22 29-18 163 25l144 46 94-32c81-27 108-32 199-32 178 0 308 51 431 173 119 117 179 260 179 426 0 85-27 212-55 261-9 15-13 19-10 8z"/></g></svg>